<svg width="173" height="49" viewBox="0 0 80 49" fill="none" xmlns="http://www.w3.org/2000/svg">
<path d="M57.9076 25.1031L48.658 29.2488C51.122 30.757 53.1373 32.1218 55.6016 33.6302C56.3961 34.1161 57.0577 34.3431 57.7759 34.3431C59.406 34.3431 61.2016 33.3554 63.6575 32.219L70.3534 29.2201C67.9243 27.7454 65.469 26.138 62.999 24.6229C62.3558 24.2281 61.8146 24.0939 61.1873 24.0939C60.3331 24.0939 59.0354 24.5494 57.9076 25.1031Z" fill="white"/>
<path d="M48.4908 18.1182L39.2412 22.2639C41.7053 23.7721 43.7205 25.1368 46.1848 26.6453C46.9793 27.1312 47.6409 27.3581 48.3592 27.3581C49.9893 27.3581 51.7848 26.3704 54.2408 25.234L60.9366 22.2352C58.5075 20.7604 56.0523 19.1531 53.5823 17.638C52.939 17.2431 52.3979 17.1089 51.7705 17.1089C50.9163 17.1089 49.6186 17.5645 48.4908 18.1182Z" fill="white"/>
<path d="M39.0743 11.2132L29.8247 15.3588C32.2887 16.867 34.304 18.2318 36.7683 19.7402C37.5628 20.2261 38.2244 20.4531 38.9427 20.4531C40.5727 20.4531 42.3683 19.4654 44.8243 18.329L51.5201 15.3301C49.091 13.8554 46.6357 12.248 44.1657 10.7329C43.5225 10.3381 42.9813 10.2039 42.354 10.2039C41.4998 10.2039 40.2021 10.6594 39.0743 11.2132Z" fill="white"/>
<path d="M17.6415 11.0998L0 19.7569C2.46407 21.2651 4.69649 22.6471 7.16077 24.1556C7.95521 24.6415 8.67992 24.8433 9.39817 24.8433C11.0283 24.8433 12.6155 23.8034 14.8681 22.6981L29.8246 15.3589C27.3956 13.8841 24.8701 12.3054 22.4001 10.7904C21.7568 10.3955 21.1545 10.2181 20.5271 10.2181C19.6729 10.2181 18.7692 10.5461 17.6415 11.0998H17.6415Z" fill="white"/>
<path d="M46.6043 29.8331C46.7077 29.8967 46.8103 29.9593 46.9136 30.0221L46.9345 30.0122C46.8319 29.9486 46.7289 29.8858 46.6262 29.8222L46.6043 29.8331Z" fill="white"/>
<path d="M37.9966 22.6466C38.0996 22.7102 38.2029 22.773 38.3056 22.8356L38.3275 22.8257C38.2249 22.7621 38.1208 22.6985 38.0182 22.6357L37.9966 22.6466Z" fill="white"/>
<path d="M27.0321 18.0291L9.39056 26.6859C11.8546 28.1943 14.087 29.5764 16.5513 31.0846C17.3458 31.5707 18.0705 31.7715 18.7887 31.7715C20.4188 31.7715 22.0063 30.7324 24.2587 29.6273L39.2152 22.2881C36.7854 20.8131 34.2607 19.2344 31.7906 17.7196C31.1474 17.3245 30.5451 17.1474 29.9177 17.1474C29.0635 17.1474 28.16 17.4751 27.032 18.0291H27.0321Z" fill="white"/>
<path d="M36.4698 25.0519L18.8283 33.7087C21.2926 35.2172 23.525 36.5992 25.989 38.1074C26.7837 38.5936 27.5084 38.7944 28.2264 38.7944C29.8568 38.7944 31.444 37.7553 33.6967 36.6502L48.6529 29.311C46.2234 27.836 43.6986 26.2573 41.2286 24.7425C40.5853 24.3474 39.983 24.1703 39.3557 24.1703C38.5015 24.1703 37.5977 24.498 36.4697 25.0519H36.4698Z" fill="white"/>
</svg>
